# xmcd
#
# Track frame offsets: 
#        150
#        13369
#        31305
#        45579
#        64382
#        82308
#        97422
#        107247
#        121444
#        140516
#        155990
#
# Disc length: 2356 seconds
#
# Revision: 1
# Processed by: cddbd v1.5.2PL0 Copyright (c) Steve Scherf et al.
# Submitted via: ExactAudioCopy v0.99pb5
#
DISCID=ab09320b
DTITLE=Black Keys, The - Attack and Release
DYEAR=2008
DGENRE=Rock
TTITLE0=All You Ever Wanted
TTITLE1=I Got Mine
TTITLE2=Strange Times
TTITLE3=Psychotic Girl
TTITLE4=Lies
TTITLE5=Remember When (Side A)
TTITLE6=Remember When (Side B)
TTITLE7=Same Old Thing
TTITLE8=So He Won't Break
TTITLE9=Oceans And Streams
TTITLE10=Things Ain't Like They Used To Be
EXTD=
EXTT0=
EXTT1=
EXTT2=
EXTT3=
EXTT4=
EXTT5=
EXTT6=
EXTT7=
EXTT8=
EXTT9=
EXTT10=
PLAYORDER=
